<svg width="91" height="87" viewBox="0 0 91 87" fill="none" xmlns="http://www.w3.org/2000/svg">
<path d="M45.5 87C20.3649 87 0 67.5302 0 43.5C0 19.4698 20.3649 0 45.5 0C70.6351 0 91 19.4698 91 43.5C91 67.5302 70.6351 87 45.5 87ZM66.7823 35.7823H45.5V23.3462C45.5 21.4694 43.1149 20.5222 41.7389 21.8552L20.7685 42.0091C19.9062 42.8335 19.9062 44.149 20.7685 44.9734L41.7389 65.1272C43.1333 66.4603 45.5 65.5131 45.5 63.6363V51.2177H66.7823C67.9931 51.2177 68.9839 50.2706 68.9839 49.1129V37.8871C68.9839 36.7294 67.9931 35.7823 66.7823 35.7823Z" fill="#F5F5F5"/>
</svg>
