<svg width="54" height="53" viewBox="0 0 54 53" fill="none" xmlns="http://www.w3.org/2000/svg">
<path d="M3.16608 0.657938L53.0987 25.2624C53.9042 25.6593 54.2355 26.6341 53.8385 27.4397C53.6802 27.761 53.4201 28.0211 53.0987 28.1795L3.16711 52.7835C2.36158 53.1804 1.3868 52.8492 0.989869 52.0436C0.816304 51.6914 0.77607 51.2882 0.876599 50.9087L5.8237 32.227C5.9873 31.6092 6.49768 31.1445 7.1281 31.0394L29.5049 27.3084C29.779 27.2627 30.0057 27.0817 30.1146 26.8357L30.1732 26.6401C30.2364 26.2605 30.0257 25.8985 29.6852 25.7563L29.5049 25.7045L7.00175 21.954C6.37108 21.8489 5.86055 21.3839 5.6971 20.7658L0.875471 2.53237C0.645781 1.66423 1.16335 0.774257 2.03149 0.544567C2.41097 0.444165 2.81397 0.484433 3.16608 0.657938Z" fill="#F2F1EB"/>
</svg>
